<svg width="43" height="44" viewBox="0 0 43 44" fill="none" xmlns="http://www.w3.org/2000/svg">
<g clip-path="url(#clip0_204_2385)">
<path d="M27.8828 1.17345C28.9393 2.07376 29.3122 3.20587 29.5625 4.53282C30.9852 4.9477 30.9852 4.9477 32.3541 4.61513C32.6011 4.37661 32.8413 4.13138 33.0747 3.87942C34.0338 2.91024 35.4095 2.65997 36.7213 2.63309C37.8954 2.63981 38.9906 2.81282 39.9144 3.58716C40.8047 4.64872 40.9256 5.97567 40.8802 7.31103C40.6888 9.06462 39.8624 10.358 38.6328 11.5875C38.6664 12.1536 38.6664 12.1536 38.7806 12.7834C38.831 13.1076 38.831 13.1076 38.8831 13.4368C38.9116 13.6031 38.9402 13.7677 38.9688 13.9391C39.0897 13.9676 39.2123 13.9962 39.3383 14.0264C40.6837 14.364 41.7033 14.752 42.4961 15.9547C42.9479 16.9726 43.0924 17.8158 43.084 18.9261C43.084 19.0772 43.0823 19.2301 43.0823 19.3863C43.0302 21.4993 42.5583 25.4668 40.9844 27.0406C40.3646 27.1229 40.0572 27.0877 39.5147 26.7685C38.4649 25.8884 37.6872 25.0032 36.9531 23.8492C36.7868 23.6241 36.6189 23.4008 36.4492 23.1774C36.3585 23.2714 36.2661 23.3655 36.1721 23.4612C31.6655 28.082 31.6655 28.082 29.5625 28.7203C29.3962 28.7203 29.2299 28.7203 29.0586 28.7203C29.072 28.9353 29.0872 29.1503 29.1006 29.372C29.0956 30.8686 28.3817 32.1754 27.3789 33.2555C25.7379 34.8495 23.4081 35.7397 21.1439 35.8489C20.4838 35.8388 20.0572 35.8036 19.5365 35.387C18.9586 34.7134 18.9234 34.1541 18.9318 33.3008C19.0057 32.7129 19.2879 32.3669 19.6524 31.9117C20.2335 31.1256 20.4653 30.5041 20.6602 29.5602C20.4804 29.535 20.4804 29.535 20.2974 29.5098C18.0029 29.152 16.4996 27.7881 15.0282 26.0379C14.3109 25.0468 14.0288 24.0474 13.9414 22.8414C12.858 23.095 12.0484 23.4226 11.185 24.1348C10.5468 24.6572 9.86145 24.5984 9.07032 24.5211C8.43708 24.2456 8.09274 23.9248 7.72657 23.3453C7.3604 21.4322 8.17169 19.0924 9.16438 17.4698C10.2293 15.9732 11.4152 14.8008 13.2695 14.443C13.7751 14.4195 14.2757 14.4228 14.7813 14.443C14.7947 14.2868 14.8081 14.1306 14.8232 13.971C14.9492 13.4352 14.9492 13.4352 15.2432 13.1093C15.7286 12.8809 15.9587 12.9279 16.4609 13.0992C16.6272 13.2655 16.6272 13.2655 16.7969 13.4352C16.7532 14.0953 16.6659 14.7336 16.5533 15.3853C16.3366 16.6736 16.209 17.9586 16.1049 19.262C16.0897 19.4384 16.0746 19.6164 16.0595 19.7995C15.7807 22.5139 15.7807 22.5139 16.7834 24.9528C17.8148 26.142 18.8915 27.2691 20.4922 27.5445C21.846 27.6168 23.1999 27.4858 24.547 27.3665C24.9098 27.3346 25.2726 27.306 25.6354 27.2791C29.3307 26.9701 31.3329 25.4668 33.9095 22.9254C34.1329 22.7037 34.1329 22.7037 34.3631 22.4786C35.7992 21.0324 37.237 19.5039 37.3025 17.3589C37.2824 16.897 37.2387 16.4452 37.1849 15.9866C37.1581 15.7447 37.1581 15.7447 37.1312 15.4961C36.8137 12.7297 36.1637 11.1105 34.2018 9.10997C34.0977 9.00247 33.9935 8.89497 33.8843 8.78411C31.7343 6.65763 28.9309 6.26794 25.9999 6.20075C24.1304 6.29145 23.0537 7.27071 21.7973 8.57919C21.332 8.90001 21.332 8.90001 20.6988 8.88489C20.5191 8.8345 20.341 8.78411 20.1563 8.73204C19.9228 8.26677 19.9564 7.90395 19.9883 7.38829C20.0991 7.222 20.21 7.05571 20.3242 6.88438C20.2167 6.82392 20.1092 6.76177 19.9984 6.69962C18.579 5.87489 17.2857 4.98634 16.4609 3.52501C16.3568 2.96903 16.3568 2.96903 16.4609 2.5172C17.0539 1.92595 17.8433 1.74622 18.6244 1.50938C18.7672 1.46571 18.9099 1.42204 19.0577 1.37669C19.4793 1.25071 19.9009 1.12642 20.3242 1.00548C20.5258 0.946689 20.7257 0.8879 20.9323 0.829111C22.9479 0.320165 26.0772 -0.101436 27.8828 1.17345ZM22.7699 2.39122C22.6372 2.41306 22.5028 2.43489 22.3667 2.45841C21.201 2.65997 20.0975 2.96735 18.9805 3.35704C19.3534 4.32958 20.2822 4.74446 21.1641 5.2047C21.7385 5.41466 22.2324 5.48856 22.8186 5.24165C23.0369 5.12239 23.2553 5.00145 23.472 4.87884C24.7099 4.29767 26.2048 4.3111 27.5469 4.36485C27.4125 3.72993 27.3016 3.28985 26.8649 2.80106C25.5531 2.04688 24.2194 2.1527 22.7699 2.39122ZM33.7987 5.73716C33.7315 5.83962 33.6626 5.9404 33.5938 6.04454C33.6929 6.13188 33.7936 6.21923 33.8961 6.30993C35.0148 7.30263 36.0713 8.33899 37.1211 9.40392C37.2891 9.57188 37.457 9.73985 37.625 9.90782C37.7879 9.7029 37.9475 9.4963 38.1088 9.28802C38.1978 9.1738 38.2868 9.0579 38.3792 8.94032C39.041 7.95771 39.0763 7.02884 38.9688 5.87657C38.8058 5.28196 38.8058 5.28196 38.4649 4.86876C36.9347 4.11626 34.9106 4.38165 33.7987 5.73716ZM39.1367 15.9547C39.1401 16.0521 39.1451 16.1512 39.1485 16.252C39.1787 17.6529 39.1384 19.1192 38.4329 20.3639C38.1373 20.9098 38.0399 21.3331 38.1608 21.9646C38.4867 22.8549 39.0141 23.9131 39.8472 24.4069C39.9447 24.4438 40.0438 24.4825 40.1445 24.5211C41.3438 20.8594 41.3438 20.8594 40.9844 17.1305C40.6065 16.472 40.4066 16.3225 39.6826 16.0706C39.4122 16.0135 39.4122 16.0135 39.1367 15.9547ZM11.5848 17.4211C10.3788 18.7027 9.61622 20.4932 9.55407 22.2535C9.56079 22.3913 9.56751 22.5307 9.57423 22.6734C10.1453 22.5693 10.5115 22.3493 10.9818 22.0116C12.0417 21.2877 12.8026 21.1567 14.1094 20.9938C14.2202 19.4417 14.3311 17.8897 14.4453 16.2906C13.2964 16.2906 12.4616 16.6736 11.5848 17.4211ZM25.5917 29.1302C25.412 29.1453 25.2323 29.1604 25.0475 29.1755C24.8611 29.1923 24.6729 29.2074 24.4815 29.2242C24.1976 29.2477 24.1976 29.2477 23.9087 29.2729C23.4417 29.3116 22.9748 29.3519 22.5078 29.3922C22.4843 29.5988 22.4843 29.5988 22.4608 29.8088C22.2911 31.2247 21.8511 32.4005 20.8281 33.4234C20.8281 33.5897 20.8281 33.756 20.8281 33.9274C22.7564 33.8786 24.6091 33.2353 26.0352 31.9117C26.7087 31.2012 27.179 30.395 27.2429 29.4023C27.2328 29.2881 27.221 29.1738 27.2109 29.0563C26.6617 29.0563 26.1376 29.0831 25.5917 29.1302Z" fill="white"/>
<path d="M24.5234 7.62891C25.0273 7.72297 25.0273 7.72297 25.2877 8.05723C25.5984 8.70391 25.7479 9.34387 25.8991 10.0443C25.9277 10.1753 25.9579 10.308 25.9881 10.4441C26.062 10.7682 26.1326 11.0941 26.2031 11.4183C26.4047 11.4401 26.6062 11.4636 26.8145 11.4855C27.5637 11.5795 28.2523 11.7794 28.9712 12.0028C29.4399 12.1002 29.633 12.1187 30.0664 11.9222C30.5014 11.5426 30.5014 11.5426 30.9264 11.0823C31.8805 10.088 31.8805 10.088 32.5859 10.0443C33.0898 10.0745 33.0898 10.0745 33.4258 10.4105C33.5198 10.8522 33.5198 10.8522 33.4258 11.4183C32.9521 12.1002 32.3894 12.6545 31.736 13.1618C31.3698 13.5616 31.3698 13.5616 31.4219 13.9798C31.5076 14.4232 31.6184 14.8482 31.7461 15.2816C31.9258 15.9686 32.082 16.58 32.082 17.2972C32.2786 17.3409 32.4751 17.3829 32.6766 17.4265C32.937 17.4853 33.1973 17.5441 33.4577 17.6029C33.587 17.6298 33.7164 17.6583 33.8491 17.6869C34.5663 17.8498 35.1844 18.0111 35.7773 18.473C35.8714 18.9769 35.8714 18.9769 35.7773 19.4808C35.4834 19.7714 35.4834 19.7714 35.1055 19.9847C34.7376 19.9729 34.7376 19.9729 34.3395 19.8705C34.0355 19.7949 33.7298 19.721 33.4258 19.6487C33.2242 19.5782 33.2242 19.5782 33.021 19.5043C32.5053 19.3531 32.1156 19.2792 31.5781 19.3128C30.8559 19.7294 30.3335 20.2904 29.7725 20.8984C29.6196 21.0496 29.4651 21.2025 29.3072 21.3587C28.4489 22.2036 28.4489 22.2036 28.2036 23.3256C28.2943 23.5843 28.2943 23.5843 28.3867 23.848C28.4186 24.3082 28.4102 24.7281 28.3867 25.1917C28.0508 25.5277 28.0508 25.5277 27.557 25.5915C27.043 25.5277 27.043 25.5277 26.7709 25.2438C26.5122 24.8121 26.4232 24.4678 26.3392 23.9739C26.3123 23.8245 26.2871 23.675 26.2586 23.5204C26.2401 23.4062 26.2216 23.2937 26.2031 23.1761C26.02 23.1593 25.8353 23.1425 25.6471 23.124C24.8812 23.0333 24.169 22.8217 23.435 22.5932C22.9731 22.4958 22.7782 22.5177 22.3398 22.6722C22.0425 22.9023 22.0425 22.9023 21.7721 23.1979C21.6696 23.3021 21.5672 23.4079 21.4614 23.5154C21.3035 23.68 21.3035 23.68 21.1439 23.848C20.9323 24.0663 20.7223 24.283 20.5123 24.4997C20.42 24.5954 20.3276 24.6929 20.2318 24.792C19.8589 25.148 19.6708 25.1917 19.1484 25.2236C18.6445 25.1917 18.6445 25.1917 18.3086 24.8558C18.2145 24.4157 18.2145 24.4157 18.3086 23.848C18.7504 23.1929 19.3114 22.652 19.911 22.1414C20.7105 21.493 20.7105 21.493 21.0297 20.5709C20.9407 20.1325 20.8147 19.7327 20.6602 19.3128C20.4754 18.6292 20.3242 18.0127 20.3242 17.2972C20.1831 17.2653 20.0404 17.2334 19.8959 17.1998C19.7111 17.1561 19.5264 17.1124 19.3366 17.0671C19.0628 17.0016 19.0628 17.0016 18.7823 16.9361C18.3086 16.7933 18.3086 16.7933 17.9727 16.4573C17.9307 15.9534 17.9307 15.9534 17.9727 15.4495C18.3086 15.1136 18.3086 15.1136 18.9284 15.0834C19.4071 15.0867 19.7128 15.1354 20.1747 15.2984C21.28 15.2715 21.8561 14.4736 22.6019 13.7178C22.7598 13.5716 22.9177 13.4238 23.0806 13.2727C23.8986 12.5 23.8986 12.5 24.2194 11.4704C24.1337 11.0387 24.0111 10.6523 23.8516 10.2425C23.776 9.91496 23.7037 9.58574 23.6315 9.25652C23.5979 9.10703 23.5627 8.95922 23.5274 8.80637C23.5156 8.39484 23.5156 8.39484 23.7289 8.01188C24.0195 7.72297 24.0195 7.72297 24.5234 7.62891ZM22.6556 15.72C22.1601 16.4254 21.8998 16.9041 21.9401 17.7725C22.1416 18.8425 22.5061 19.9276 23.3477 20.6566C24.3504 21.2881 25.5229 21.6996 26.707 21.4964C28.2423 20.717 29.6213 19.3363 30.4023 17.8011C30.6056 16.6169 30.1924 15.4445 29.5625 14.4417C28.8335 13.6002 27.7484 13.2357 26.6785 13.0358C24.9938 12.9552 23.645 14.4955 22.6556 15.72Z" fill="white"/>
<path d="M12.9336 30.3994C13.2695 30.9033 13.2695 30.9033 13.2695 31.3031C13.0327 31.9229 12.6598 32.2639 12.0938 32.583C11.8048 32.6586 11.5143 32.7291 11.222 32.793C10.6055 32.9441 10.6055 32.9441 10.2175 33.4128C10.0983 33.8058 10.0042 34.1989 9.91016 34.5986C9.58934 35.3982 9.17445 35.9038 8.39844 36.3119C8.0625 36.4463 8.0625 36.4463 7.67449 36.5269C7.23777 36.6227 6.92535 36.7066 6.55078 36.9502C6.32738 37.444 6.19973 37.9362 6.05863 38.4586C5.76973 39.2749 5.27422 39.715 4.53516 40.1416C4.09508 40.3029 3.66676 40.4288 3.2082 40.5279C2.79332 40.6254 2.79332 40.6254 2.51953 41.1494C2.43555 41.4232 2.35996 41.7004 2.28773 41.9792C1.95516 43.1163 1.95516 43.1163 1.34375 43.501C0.819688 43.5648 0.819688 43.5648 0.335938 43.501C0 43.165 0 43.165 -0.0419922 42.6712C0 42.1572 0 42.1572 0.335938 41.6533C0.414883 41.3863 0.488789 41.1158 0.555976 40.8454C0.801211 40.0156 1.03805 39.5504 1.67969 38.9658C2.11473 38.7491 2.55816 38.6013 3.02344 38.4619C3.73898 38.2217 3.73898 38.2217 4.19922 37.6221C4.27145 37.3533 4.33695 37.0846 4.3991 36.8141C4.66617 35.9038 5.04578 35.3948 5.87891 34.9346C6.31395 34.7901 6.75234 34.6742 7.1941 34.5566C7.59051 34.4525 7.59051 34.4525 7.88445 34.0746C8.06082 33.616 8.06082 33.616 8.15992 33.2364C8.45219 32.2185 8.8066 31.6105 9.74219 31.0713C10.1688 30.91 10.5871 30.7841 11.0305 30.6749C11.4269 30.5808 11.4269 30.5808 11.7813 30.3843C12.2231 30.1676 12.4767 30.2432 12.9336 30.3994Z" fill="white"/>
<path d="M16.02 34.0508C16.4601 34.0928 16.4601 34.0928 16.7759 34.2708C16.964 34.5967 16.964 34.5967 16.9858 35.1745C16.796 35.7725 16.796 35.7725 16.2921 36.1504C15.936 36.3301 15.6236 36.4443 15.2306 36.525C14.7955 36.6207 14.4831 36.7047 14.1085 36.9482C13.8868 37.4421 13.7575 37.9342 13.6164 38.4566C13.3292 39.2729 12.832 39.7113 12.0929 40.1396C11.6595 40.3076 11.2363 40.4353 10.7828 40.5411C10.3695 40.6352 10.3695 40.6352 9.90931 40.9795C8.97709 40.8854 8.97709 40.8854 8.73353 40.6436C8.67138 40.0876 8.67138 40.0876 8.73353 39.4678C9.30463 38.7841 10.0319 38.638 10.8667 38.4448C11.3505 38.2534 11.5 38.0686 11.757 37.6201C11.8813 37.2204 11.8813 37.2204 11.9686 36.8021C12.234 35.885 12.6002 35.3962 13.4367 34.9326C13.9658 34.7243 14.4932 34.548 15.0374 34.3884C15.4741 34.254 15.5699 34.0978 16.02 34.0508Z" fill="white"/>
<path d="M8.90233 26.5355C9.30714 26.8009 9.38944 26.9689 9.5003 27.4392C9.38608 27.9734 9.15933 28.2018 8.73268 28.5327C8.33796 28.7527 7.96507 28.8451 7.52667 28.9509C6.8128 29.1357 6.8128 29.1357 6.39288 29.7689C6.30554 30.0814 6.30554 30.0814 6.21483 30.3988C5.86042 31.4083 5.44554 32.0281 4.53515 32.5824C4.10347 32.7453 3.6785 32.8696 3.23003 32.9788C2.81179 33.0779 2.81179 33.0779 2.35155 33.4223C1.41765 33.3282 1.41765 33.3282 1.17577 33.0863C1.11194 32.5303 1.11194 32.5303 1.17577 31.9105C1.74518 31.2269 2.47249 31.0808 3.30897 30.8876C3.79272 30.6961 3.94054 30.5114 4.19921 30.0629C4.3235 29.6631 4.3235 29.6631 4.40917 29.2432C4.6712 28.3328 5.05081 27.839 5.8789 27.3754C6.31058 27.2141 6.73554 27.0882 7.18401 26.979C8.78307 26.5204 8.78307 26.5204 8.90233 26.5355Z" fill="white"/>
<path d="M18.8125 10.0751C19.0359 11.1552 19.0359 11.1552 18.7923 11.5768C18.3691 11.8153 18.1137 11.827 17.6367 11.7548C17.3209 11.5768 17.3209 11.5768 17.1328 11.2509C17.1647 10.6429 17.1647 10.6429 17.3008 10.0751C17.8164 9.81814 18.2582 9.98275 18.8125 10.0751Z" fill="white"/>
</g>
<defs>
<clipPath id="clip0_204_2385">
<rect width="43" height="43" fill="white" transform="translate(0 0.5)"/>
</clipPath>
</defs>
</svg>
