<svg width="23" height="22" viewBox="0 0 23 22" fill="none" xmlns="http://www.w3.org/2000/svg">
<path fill-rule="evenodd" clip-rule="evenodd" d="M6.94525 0H15.1953C18.9916 0 22.0703 3.07862 22.0703 6.875V15.125C22.0703 18.9214 18.9916 22 15.1953 22H6.94525C3.14888 22 0.0702515 18.9214 0.0702515 15.125V6.875C0.0702515 3.07862 3.14888 0 6.94525 0ZM15.1952 19.9375C17.849 19.9375 20.0077 17.7787 20.0077 15.125V6.875C20.0077 4.22125 17.849 2.0625 15.1952 2.0625H6.9452C4.29145 2.0625 2.1327 4.22125 2.1327 6.875V15.125C2.1327 17.7787 4.29145 19.9375 6.9452 19.9375H15.1952Z" fill="white"/>
<path fill-rule="evenodd" clip-rule="evenodd" d="M5.5703 11C5.5703 7.96263 8.03292 5.5 11.0703 5.5C14.1077 5.5 16.5703 7.96263 16.5703 11C16.5703 14.0374 14.1077 16.5 11.0703 16.5C8.03292 16.5 5.5703 14.0374 5.5703 11ZM7.6328 11C7.6328 12.8948 9.17555 14.4375 11.0703 14.4375C12.965 14.4375 14.5078 12.8948 14.5078 11C14.5078 9.10388 12.965 7.5625 11.0703 7.5625C9.17555 7.5625 7.6328 9.10388 7.6328 11Z" fill="white"/>
<ellipse cx="16.9827" cy="5.08737" rx="0.732875" ry="0.732875" fill="white"/>
</svg>
