<svg width="19" height="18" viewBox="0 0 19 18" fill="none" xmlns="http://www.w3.org/2000/svg">
<g clip-path="url(#clip0_130_359)">
<path d="M17.891 5.4001C17.891 5.4001 17.7152 4.15908 17.1738 3.61416C16.4882 2.89697 15.7218 2.89346 15.3703 2.85127C12.8531 2.66846 9.07377 2.66846 9.07377 2.66846H9.06674C9.06674 2.66846 5.28744 2.66846 2.77025 2.85127C2.41869 2.89346 1.65228 2.89697 0.966736 3.61416C0.42533 4.15908 0.253064 5.4001 0.253064 5.4001C0.253064 5.4001 0.0702515 6.85908 0.0702515 8.31455V9.67861C0.0702515 11.1341 0.249548 12.5931 0.249548 12.5931C0.249548 12.5931 0.42533 13.8341 0.96322 14.379C1.64877 15.0962 2.54877 15.0716 2.94955 15.1489C4.39095 15.286 9.07025 15.3282 9.07025 15.3282C9.07025 15.3282 12.8531 15.3212 15.3703 15.1419C15.7218 15.0997 16.4882 15.0962 17.1738 14.379C17.7152 13.8341 17.891 12.5931 17.891 12.5931C17.891 12.5931 18.0703 11.1376 18.0703 9.67861V8.31455C18.0703 6.85908 17.891 5.4001 17.891 5.4001ZM7.21049 11.3345V6.27549L12.0726 8.81377L7.21049 11.3345Z" fill="white"/>
</g>
<defs>
<clipPath id="clip0_130_359">
<rect width="18" height="18" fill="white" transform="translate(0.0702515)"/>
</clipPath>
</defs>
</svg>
